<?xml version="1.0" encoding="UTF-8"?>
<svg width="88px" height="17px" viewBox="0 0 88 17" version="1.1" xmlns="http://www.w3.org/2000/svg" xmlns:xlink="http://www.w3.org/1999/xlink">
    <title>Group 3</title>
    <g id="Page-1" stroke="none" stroke-width="1" fill="none" fill-rule="evenodd">
        <g id="Group-3" transform="translate(0.775248, 0.425000)">
            <g id="Group-2">
                <polygon id="Path-Copy" fill="#FFFFFF" fill-rule="nonzero" points="7.68479718 1.5 7.68479718 6.5 8.63479718 6.5 8.63479718 1.5"></polygon>
                <polygon id="Path-Copy-5" fill="#FFFFFF" fill-rule="nonzero" transform="translate(10.781118, 5.378680) rotate(45.000000) translate(-10.781118, -5.378680) " points="10.3061175 2.87867966 10.3061175 7.87867966 11.2561175 7.87867966 11.2561175 2.87867966"></polygon>
                <polygon id="Path-Copy-7" fill="#FFFFFF" fill-rule="nonzero" transform="translate(11.198274, 10.914214) rotate(-45.000000) translate(-11.198274, -10.914214) " points="10.723274 8.41421356 10.723274 13.4142136 11.673274 13.4142136 11.673274 8.41421356"></polygon>
                <polygon id="Path-Copy-8" fill="#FFFFFF" fill-rule="nonzero" transform="translate(5.121320, 5.085786) rotate(-45.000000) translate(-5.121320, -5.085786) " points="4.64632034 2.58578644 4.64632034 7.58578644 5.59632034 7.58578644 5.59632034 2.58578644"></polygon>
                <polygon id="Path-Copy-6" fill="#FFFFFF" fill-rule="nonzero" transform="translate(5.121320, 10.914214) rotate(45.000000) translate(-5.121320, -10.914214) " points="4.64632034 8.41421356 4.64632034 13.4142136 5.59632034 13.4142136 5.59632034 8.41421356"></polygon>
                <polygon id="Path-Copy-3" fill="#FFFFFF" fill-rule="nonzero" transform="translate(12.284060, 8.000000) rotate(90.000000) translate(-12.284060, -8.000000) " points="11.8090605 5.5 11.8090605 10.5 12.7590605 10.5 12.7590605 5.5"></polygon>
                <polygon id="Path-Copy-4" fill="#FFFFFF" fill-rule="nonzero" transform="translate(4.078124, 8.000000) rotate(90.000000) translate(-4.078124, -8.000000) " points="3.6031238 5.5 3.6031238 10.5 4.5531238 10.5 4.5531238 5.5"></polygon>
                <polygon id="Path-Copy-2" fill="#FFFFFF" fill-rule="nonzero" points="7.68479718 9.5 7.68479718 14.5 8.63479718 14.5 8.63479718 9.5"></polygon>
                <circle id="Oval" stroke="#FFFFFF" stroke-width="2" cx="8.15979718" cy="8" r="2.03847684"></circle>
                <circle id="Oval-Copy" fill="#FFFFFF" cx="8.15979718" cy="1.5" r="1.5"></circle>
                <circle id="Oval-Copy-2" fill="#FFFFFF" cx="13.0262458" cy="3.25735931" r="1.5"></circle>
                <circle id="Oval-Copy-3" fill="#FFFFFF" cx="14.8195944" cy="8" r="1.5"></circle>
                <circle id="Oval-Copy-4" fill="#FFFFFF" cx="13.2840605" cy="13" r="1.5"></circle>
                <circle id="Oval-Copy-5" fill="#FFFFFF" cx="8.15979718" cy="14.5" r="1.5"></circle>
                <circle id="Oval-Copy-6" fill="#FFFFFF" cx="3.62132034" cy="13" r="1.5"></circle>
                <circle id="Oval-Copy-7" fill="#FFFFFF" cx="1.5" cy="8" r="1.5"></circle>
                <circle id="Oval-Copy-8" fill="#FFFFFF" cx="3.62132034" cy="3.46152316" r="1.5"></circle>
            </g>
            <g id="Group" transform="translate(22.004752, 4.265000)" fill="#FFFFFF" fill-rule="nonzero">
                <polygon id="Path" points="0 0.17 0 7.31 0.95 7.31 0.95 4.81 2.14 3.7 4.72 7.31 5.92 7.31 2.79 3.05 5.8 0.17 4.57 0.17 0.95 3.73 0.95 0.17"></polygon>
                <polygon id="Path" points="6.71 0.17 6.71 7.31 7.66 7.31 7.66 0.17"></polygon>
                <path d="M14.28,2.32 L15.23,2.32 C15.1766667,1.94 15.0633333,1.605 14.89,1.315 C14.7166667,1.025 14.5,0.783333333 14.24,0.59 C13.98,0.396666667 13.6833333,0.25 13.35,0.15 C13.0166667,0.05 12.6633333,0 12.29,0 C11.7433333,0 11.2583333,0.0983333333 10.835,0.295 C10.4116667,0.491666667 10.0583333,0.76 9.775,1.1 C9.49166667,1.44 9.27666667,1.83833333 9.13,2.295 C8.98333333,2.75166667 8.91,3.24 8.91,3.76 C8.91,4.28 8.97833333,4.76666667 9.115,5.22 C9.25166667,5.67333333 9.45666667,6.06666667 9.73,6.4 C10.0033333,6.73333333 10.3466667,6.995 10.76,7.185 C11.1733333,7.375 11.6566667,7.47 12.21,7.47 C13.1233333,7.47 13.8433333,7.22 14.37,6.72 C14.8966667,6.22 15.2066667,5.52 15.3,4.62 L14.35,4.62 C14.33,4.91333333 14.27,5.18666667 14.17,5.44 C14.07,5.69333333 13.9316667,5.91166667 13.755,6.095 C13.5783333,6.27833333 13.3683333,6.42166667 13.125,6.525 C12.8816667,6.62833333 12.6033333,6.68 12.29,6.68 C11.8633333,6.68 11.4966667,6.6 11.19,6.44 C10.8833333,6.28 10.6316667,6.065 10.435,5.795 C10.2383333,5.525 10.0933333,5.20833333 10,4.845 C9.90666667,4.48166667 9.86,4.09666667 9.86,3.69 C9.86,3.31666667 9.90666667,2.95666667 10,2.61 C10.0933333,2.26333333 10.2383333,1.955 10.435,1.685 C10.6316667,1.415 10.8816667,1.2 11.185,1.04 C11.4883333,0.88 11.8533333,0.8 12.28,0.8 C12.78,0.8 13.2116667,0.926666667 13.575,1.18 C13.9383333,1.43333333 14.1733333,1.81333333 14.28,2.32 Z" id="Path"></path>
                <polygon id="Path" points="16.48 0.17 16.48 7.31 17.43 7.31 17.43 4.81 18.62 3.7 21.2 7.31 22.4 7.31 19.27 3.05 22.28 0.17 21.05 0.17 17.43 3.73 17.43 0.17"></polygon>
                <path d="M27.28,2.26 L28.18,2.26 C28.1666667,1.86666667 28.0916667,1.52833333 27.955,1.245 C27.8183333,0.961666667 27.6316667,0.726666667 27.395,0.54 C27.1583333,0.353333333 26.8833333,0.216666667 26.57,0.13 C26.2566667,0.0433333333 25.9166667,0 25.55,0 C25.2233333,0 24.905,0.0416666667 24.595,0.125 C24.285,0.208333333 24.0083333,0.335 23.765,0.505 C23.5216667,0.675 23.3266667,0.891666667 23.18,1.155 C23.0333333,1.41833333 22.96,1.73 22.96,2.09 C22.96,2.41666667 23.025,2.68833333 23.155,2.905 C23.285,3.12166667 23.4583333,3.29833333 23.675,3.435 C23.8916667,3.57166667 24.1366667,3.68166667 24.41,3.765 C24.6833333,3.84833333 24.9616667,3.92166667 25.245,3.985 C25.5283333,4.04833333 25.8066667,4.11 26.08,4.17 C26.3533333,4.23 26.5983333,4.30833333 26.815,4.405 C27.0316667,4.50166667 27.205,4.62666667 27.335,4.78 C27.465,4.93333333 27.53,5.13333333 27.53,5.38 C27.53,5.64 27.4766667,5.85333333 27.37,6.02 C27.2633333,6.18666667 27.1233333,6.31833333 26.95,6.415 C26.7766667,6.51166667 26.5816667,6.58 26.365,6.62 C26.1483333,6.66 25.9333333,6.68 25.72,6.68 C25.4533333,6.68 25.1933333,6.64666667 24.94,6.58 C24.6866667,6.51333333 24.465,6.41 24.275,6.27 C24.085,6.13 23.9316667,5.95166667 23.815,5.735 C23.6983333,5.51833333 23.64,5.26 23.64,4.96 L22.74,4.96 C22.74,5.39333333 22.8183333,5.76833333 22.975,6.085 C23.1316667,6.40166667 23.345,6.66166667 23.615,6.865 C23.885,7.06833333 24.1983333,7.22 24.555,7.32 C24.9116667,7.42 25.29,7.47 25.69,7.47 C26.0166667,7.47 26.345,7.43166667 26.675,7.355 C27.005,7.27833333 27.3033333,7.155 27.57,6.985 C27.8366667,6.815 28.055,6.595 28.225,6.325 C28.395,6.055 28.48,5.73 28.48,5.35 C28.48,4.99666667 28.415,4.70333333 28.285,4.47 C28.155,4.23666667 27.9816667,4.04333333 27.765,3.89 C27.5483333,3.73666667 27.3033333,3.615 27.03,3.525 C26.7566667,3.435 26.4783333,3.35666667 26.195,3.29 C25.9116667,3.22333333 25.6333333,3.16166667 25.36,3.105 C25.0866667,3.04833333 24.8416667,2.97666667 24.625,2.89 C24.4083333,2.80333333 24.235,2.69166667 24.105,2.555 C23.975,2.41833333 23.91,2.24 23.91,2.02 C23.91,1.78666667 23.955,1.59166667 24.045,1.435 C24.135,1.27833333 24.255,1.15333333 24.405,1.06 C24.555,0.966666667 24.7266667,0.9 24.92,0.86 C25.1133333,0.82 25.31,0.8 25.51,0.8 C26.0033333,0.8 26.4083333,0.915 26.725,1.145 C27.0416667,1.375 27.2266667,1.74666667 27.28,2.26 Z" id="Path"></path>
                <polygon id="Path" points="31.25 0.97 31.25 7.31 32.2 7.31 32.2 0.97 34.58 0.97 34.58 0.17 28.87 0.17 28.87 0.97"></polygon>
                <path d="M35.68,4.36 L36.89,1.03 L36.91,1.03 L38.1,4.36 L35.68,4.36 Z M36.39,0.17 L33.61,7.31 L34.58,7.31 L35.38,5.16 L38.4,5.16 L39.18,7.31 L40.23,7.31 L37.44,0.17 L36.39,0.17 Z" id="Shape"></path>
                <path d="M40.93,0.17 L40.93,7.31 L41.88,7.31 L41.88,4.26 L44.2,4.26 C44.4333333,4.26 44.62,4.295 44.76,4.365 C44.9,4.435 45.0133333,4.52833333 45.1,4.645 C45.1866667,4.76166667 45.25,4.89833333 45.29,5.055 C45.33,5.21166667 45.3633333,5.37666667 45.39,5.55 C45.4233333,5.72333333 45.4433333,5.9 45.45,6.08 C45.4566667,6.26 45.4633333,6.42833333 45.47,6.585 C45.4766667,6.74166667 45.4916667,6.88333333 45.515,7.01 C45.5383333,7.13666667 45.5833333,7.23666667 45.65,7.31 L46.71,7.31 C46.61,7.19 46.535,7.05166667 46.485,6.895 C46.435,6.73833333 46.3966667,6.57333333 46.37,6.4 C46.3433333,6.22666667 46.3266667,6.05 46.32,5.87 C46.3133333,5.69 46.3033333,5.51333333 46.29,5.34 C46.27,5.16666667 46.2416667,5 46.205,4.84 C46.1683333,4.68 46.1116667,4.535 46.035,4.405 C45.9583333,4.275 45.855,4.16333333 45.725,4.07 C45.595,3.97666667 45.4266667,3.91 45.22,3.87 L45.22,3.85 C45.6533333,3.73 45.9683333,3.50666667 46.165,3.18 C46.3616667,2.85333333 46.46,2.47333333 46.46,2.04 C46.46,1.46 46.2683333,1.00333333 45.885,0.67 C45.5016667,0.336666667 44.97,0.17 44.29,0.17 L40.93,0.17 Z M43.86,3.46 L41.88,3.46 L41.88,0.97 L44.24,0.97 C44.6866667,0.97 45.01,1.08333333 45.21,1.31 C45.41,1.53666667 45.51,1.83 45.51,2.19 C45.51,2.45 45.465,2.66166667 45.375,2.825 C45.285,2.98833333 45.165,3.11833333 45.015,3.215 C44.865,3.31166667 44.69,3.37666667 44.49,3.41 C44.29,3.44333333 44.08,3.46 43.86,3.46 Z" id="Shape"></path>
                <polygon id="Path" points="49.22 0.97 49.22 7.31 50.17 7.31 50.17 0.97 52.55 0.97 52.55 0.17 46.84 0.17 46.84 0.97"></polygon>
                <polygon id="Path" points="53.34 0.17 53.34 7.31 58.3 7.31 58.3 6.51 54.29 6.51 54.29 4.04 58 4.04 58 3.24 54.29 3.24 54.29 0.97 58.27 0.97 58.27 0.17"></polygon>
                <path d="M59.45,0.17 L59.45,7.31 L60.4,7.31 L60.4,4.26 L62.72,4.26 C62.9533333,4.26 63.14,4.295 63.28,4.365 C63.42,4.435 63.5333333,4.52833333 63.62,4.645 C63.7066667,4.76166667 63.77,4.89833333 63.81,5.055 C63.85,5.21166667 63.8833333,5.37666667 63.91,5.55 C63.9433333,5.72333333 63.9633333,5.9 63.97,6.08 C63.9766667,6.26 63.9833333,6.42833333 63.99,6.585 C63.9966667,6.74166667 64.0116667,6.88333333 64.035,7.01 C64.0583333,7.13666667 64.1033333,7.23666667 64.17,7.31 L65.23,7.31 C65.13,7.19 65.055,7.05166667 65.005,6.895 C64.955,6.73833333 64.9166667,6.57333333 64.89,6.4 C64.8633333,6.22666667 64.8466667,6.05 64.84,5.87 C64.8333333,5.69 64.8233333,5.51333333 64.81,5.34 C64.79,5.16666667 64.7616667,5 64.725,4.84 C64.6883333,4.68 64.6316667,4.535 64.555,4.405 C64.4783333,4.275 64.375,4.16333333 64.245,4.07 C64.115,3.97666667 63.9466667,3.91 63.74,3.87 L63.74,3.85 C64.1733333,3.73 64.4883333,3.50666667 64.685,3.18 C64.8816667,2.85333333 64.98,2.47333333 64.98,2.04 C64.98,1.46 64.7883333,1.00333333 64.405,0.67 C64.0216667,0.336666667 63.49,0.17 62.81,0.17 L59.45,0.17 Z M62.38,3.46 L60.4,3.46 L60.4,0.97 L62.76,0.97 C63.2066667,0.97 63.53,1.08333333 63.73,1.31 C63.93,1.53666667 64.03,1.83 64.03,2.19 C64.03,2.45 63.985,2.66166667 63.895,2.825 C63.805,2.98833333 63.685,3.11833333 63.535,3.215 C63.385,3.31166667 63.21,3.37666667 63.01,3.41 C62.81,3.44333333 62.6,3.46 62.38,3.46 Z" id="Shape"></path>
            </g>
        </g>
    </g>
</svg>